
<svg width="183px" height="189px" viewBox="0 0 183 189" version="1.1" xmlns="http://www.w3.org/2000/svg" xmlns:xlink="http://www.w3.org/1999/xlink">
    <!-- Generator: Sketch 41.2 (35397) - http://www.bohemiancoding.com/sketch -->
    <desc>Created with Sketch.</desc>
    <defs>
        <polygon id="path-1" points="0 0.287946153 181.929245 0.287946153 181.929245 186.891055 0 186.891055"></polygon>
    </defs>
    <g id="Avatar" stroke="none" stroke-width="1" fill="none" fill-rule="evenodd" transform="translate(0.639147, 0.907036)">
        <g id="Page-1" transform="translate(0.000000, 0.472321)">
            <path d="M76.3608534,170.620643 C82.3776907,136.620643 60.260464,178.915075 61.3608534,170.620643 C62.4612429,162.326211 19.7461243,142.723486 22.3701299,135.190011 C24.9941354,127.656536 24.9525552,122.883193 28.7615955,120.828609 C31.5887499,119.303651 53.5892262,130.055706 60.3608534,127.620643 C67.1324806,125.18558 71.5069511,123.294749 76.3608534,121.620643 C81.2147558,119.946538 66.1344199,99.9897583 67.3776907,98.01127 C68.6182528,96.0327816 73.5600913,89.8952063 73.5018553,85.6837655 C73.4463279,81.4723247 74.0943727,77.5524827 73.5018553,73.595506 L90.9646226,73.595506 L108.654917,73.595506 C108.062399,77.5524827 108.710444,79.2775252 108.654917,83.488966 C108.652343,83.6750961 108.656104,86.1681168 108.654917,86.3612462 C108.653729,86.5543757 113.365821,96.1202235 114.551554,98.01127 C115.794825,99.9897583 109.697652,116.946538 114.551554,118.620643 C119.405457,120.294749 117.589226,117.18558 124.360853,119.620643 C131.132481,122.055706 135.533699,133.665053 138.360853,135.190011 C142.169894,137.244595 128.736848,135.087168 131.360853,142.620643 C131.5463,143.153056 135.735033,146.030741 135.911298,146.620643 C136.087563,147.210545 130.338232,159.912404 131.360853,167.620643 C132.461243,175.915075 108.40098,165.750518 108.654917,170.620643 L76.3608534,170.620643 Z" id="Fill-1" fill="#F1D0B6"></path>
            <path d="M108.654917,86.3612462 C108.710444,82.1498055 111.258132,77.5902262 111.850649,73.6332494 L97.3726134,73.6332494 L70.3061224,77.7444055 C70.3061224,77.7444055 75.2591876,86.2992276 81.6536352,91.010465 C97.1281576,102.412646 108.401563,101.055098 114.551554,98.01127 C113.310992,96.0327816 108.596681,90.572687 108.654917,86.3612462 Z" id="Fill-3" fill="#D0A48B"></path>
            <mask id="mask-2" fill="white">
                <use xlink:href="#path-1"></use>
            </mask>
            <g id="Clip-8"></g>
            <path d="M13.3608534,188.620643 C15.888737,187.027147 13.2814859,184.758421 13.3608534,180.620643 C13.440221,176.482865 12.7703231,162.512657 13.3608534,158.620643 C14.2073068,153.03948 13.44042,147.353998 15.3608534,141.620643 C17.2785783,135.889723 18.1397597,132.798198 20.3608534,130.620643 C23.1541497,127.881198 25.3376604,121.347102 30.3608534,119.620643 C35.3840465,117.896619 37.491207,117.751323 43.3608534,115.620643 C47.7014665,114.04394 55.2042593,108.642963 60.3608534,106.620643 C62.173618,105.907779 62.7364174,100.385456 63.7643504,99.9897583 C67.9884915,99.4546533 78.5508756,98.4988912 90.9646226,102.904528 C103.37837,98.4988912 113.940754,99.4546533 118.164895,99.9897583 C119.192828,100.385456 120.548089,107.49523 122.360853,108.208095 C127.517448,110.230414 135.02024,114.04394 139.360853,115.620643 C145.2305,117.751323 146.33766,120.896619 151.360853,122.620643 C156.384046,124.347102 154.567557,127.881198 157.360853,130.620643 C159.581947,132.798198 160.443129,135.889723 162.360853,141.620643 C164.281287,147.353998 163.5144,153.03948 164.360853,158.620643 C165.207307,164.199372 165.911217,182.808962 166.360853,190.620643 L13.3608534,188.620643 Z" id="Fill-7" fill="#D9DCE6" mask="url(#mask-2)"></path>
            <path d="M90.9646226,102.625166 C89.9610674,102.547852 88.6554977,102.281213 86.9862916,101.663925 C81.7382805,99.7231799 68.4063009,94.0543541 68.4063009,94.0543541 L62.8197084,100.636328 C62.5657724,101.892212 62.947015,104.441114 64.0047432,107.827677 C65.0631485,111.213632 67.6025087,118.214437 68.4909462,120.611756 C69.3800608,123.008466 70.1845302,124.758667 70.6924022,125.519624 C71.4961943,124.720924 78.3524669,115.018417 84.8701581,111.023697 C91.9160362,106.705113 90.0165948,106.707548 97.059087,111.023697 C103.576778,115.018417 110.433051,124.720924 111.236843,125.519624 C111.744715,124.758667 112.549184,123.008466 113.438299,120.611756 C114.326736,118.214437 116.866097,111.213632 117.924502,107.827677 C118.98223,104.441114 119.363473,101.892212 119.109537,100.636328 L113.522944,94.0543541 C113.522944,94.0543541 100.190965,99.7231799 94.9429535,101.663925 C93.2737474,102.281213 91.9681777,102.547852 90.9646226,102.625166" id="Fill-9" fill="#BBBBBB" mask="url(#mask-2)"></path>
            <path d="M87.5368249,100.902846 C77.3421401,97.1144973 77.104361,94.4432336 73.5018553,91.8858091 C72.697386,91.3147869 73.5018553,88.0353518 73.5018553,86.3612462 C72.3594818,86.8939162 67.5178634,90.249447 66.7980394,91.8474569 C66.0788926,93.4454667 62.439143,100.370176 62.439143,100.370176 C63.0736444,103.185717 64.0893885,106.229545 65.7403112,110.757544 C67.3905568,115.284934 69.6766581,122.400187 70.7770475,124.949089 C72.2160183,122.780666 76.1943493,116.578561 78.4371122,113.458638 C80.6798752,110.338714 85.2933848,103.985026 86.4784195,102.158729 C87.7325249,102.615304 89.9075716,103.242941 90.9646226,103.533322 C92.0216736,103.242941 94.1967202,102.615304 95.4508256,102.158729 C96.6358603,103.985026 101.24937,110.338714 103.492133,113.458638 C105.734896,116.578561 109.713227,122.780666 111.152198,124.949089 C112.252587,122.400187 114.538688,115.284934 116.188934,110.757544 C117.839857,106.229545 118.855601,103.185717 119.490102,100.370176 C119.490102,100.370176 115.850353,93.4454667 115.131206,91.8474569 C114.411382,90.249447 109.79729,86.8939162 108.654917,86.3612462 C108.654917,88.0353518 109.459386,91.5347846 108.654917,92.1058067 C105.052411,94.6632313 104.587105,97.1144973 94.3924203,100.902846 C92.7428519,101.515873 91.6417853,101.872001 90.9646226,102.072894 C90.2874598,101.872001 89.1863933,101.515873 87.5368249,100.902846 Z" id="Fill-11" fill="#FFFFFF" mask="url(#mask-2)"></path>
            <path d="M33.491193,186.869571 C33.6604836,183.927406 34.1121512,173.932692 33.0402026,165.663828 C31.9675768,157.394964 30.3877562,148.974518 28.6386449,143.08958 C30.4439607,145.879553 32.4185672,151.358444 33.7173653,158.054866 C33.9375317,159.19343 37.0804965,168.313198 38.8516131,178.599159 C40.6227297,188.885119 38.3685175,183.828936 38.8516131,186.869571 L33.491193,186.869571 Z" id="Fill-12" fill="#BBBBBB" mask="url(#mask-2)"></path>
            <path d="M144.361097,186.779991 C144.191807,183.837826 143.740139,173.843112 144.812088,165.574248 C145.884713,157.305384 147.464534,148.884938 149.213645,143 C147.408329,145.789973 145.433046,151.268864 144.134925,157.965286 C143.852548,159.422062 141.212291,172.859955 139,186.779991 L144.361097,186.779991 Z" id="Fill-13" fill="#BBBBBB" mask="url(#mask-2)"></path>
        </g>
        <g id="Page-1" transform="translate(52.048534, 20.771121)" fill="#F1D0B6">
            <g id="Group-2">
                <path d="M20.7641962,60.9472049 C17.3238525,58.9053411 16.2911995,56.4339863 15.0618556,55.5268873 C13.7793358,54.5801361 12.597292,53.8053595 11.8661228,51.8882441 C11.1076658,49.9020715 7.99497248,43.7760344 7.99497248,43.7760344 C6.56551911,44.4443293 5.16615213,44.6296698 3.24202253,42.0678725 C1.31789292,39.5060752 -0.11016108,35.3474984 0.00668606266,32.6743186 C0.123533206,30.0011388 1.17305844,27.588594 3.27210892,28.034124 C5.37115939,28.479654 6.30383748,29.0365664 6.30383748,29.0365664 C5.74968816,26.2894286 4.32163415,22.2787679 5.83714859,17.8608927 C7.35336272,13.442572 9.30268093,8.03651137 19.0730612,4.23480415 C32.2285102,-0.884335191 42.2668692,-0.943145147 55.5727502,4.23480415 C65.3431305,8.03651137 67.2924487,13.442572 68.8086628,17.8608927 C70.3241772,22.2787679 68.8961232,26.2894286 68.3419739,29.0365664 C68.3419739,29.0365664 69.274652,28.479654 71.3737025,28.034124 C73.4727529,27.588594 74.5222782,30.0011388 74.6391253,32.6743186 C74.7559725,35.3474984 73.3279185,39.5060752 71.4037889,42.0678725 C69.4796593,44.6296698 68.0802923,44.4443293 66.6508389,43.7760344 C66.6508389,43.7760344 63.7563051,49.9020715 62.9978482,51.8882441 C62.4956086,53.2051092 60.6162635,56.2138453 59.8021153,57.4456051 C58.5727714,58.3527041 57.3219589,58.9053411 53.8816152,60.9472049 C50.4419712,62.9890687 45.4854133,65.4212168 43.6200571,65.7179398 C40.7317637,66.1772812 33.9147474,66.1772812 31.0257543,65.7179398 C29.1603981,65.4212168 24.2038402,62.9890687 20.7641962,60.9472049 Z" id="Fill-1"></path>
            </g>
        </g>
        <path d="M69.2247539,13.121291 L70.090785,15.5642606 L62.3608534,20.6312856 L62.3608534,25.0929641 L56.6524787,29.3256479 L59.1819138,29.3256479 L55.5757914,37.4992484 L54.3274583,46.8729633 L56.6524787,50.4609343 L59.6874887,50.1729968 L63.7102422,44.9743755 L63.9879963,41.6102309 L67.1774875,46.473675 L69.2247539,43.5346881 L74.0620448,45.6334824 L77.2187672,42.1827316 L83.8770641,45.3702895 L87.6048989,42.5820199 L92.9820939,47.0810431 L96.2932976,47.0810431 L100.699914,43.5178167 L103.179415,45.9056733 L109.076229,47.7052826 L112.388993,48.9053971 L115.667428,48.9053971 L119.0863,48.9053971 L122.243023,52.8970431 L127.47978,46.473675 L122.243023,37.5914784 L127.47978,40.3505044 L120.02255,31.0926393 L127.47978,35.0686511 L122.243023,25.894018 L119.0863,22.3825303 L115.667428,20.6312856 L118.360853,19.0929641 C118.360853,19.0929641 112.914718,9.35770452 109.076229,10.0929641 C105.23774,10.8282237 98.3608534,10.0929641 98.3608534,10.0929641 L89.3608534,6.09296413 L87.6048989,10.0929641 L77.2187672,10.0929641 L69.2247539,13.121291 Z" id="Path-3" stroke="#000000" stroke-width="0.1" fill="#070707"></path>
        <path d="" id="Path-8" stroke="#979797"></path>
        <path d="M75.1512154,71.8049359 L79.893321,76.5035965 L87.1570594,77.469555 L96.3767799,77.6567861 L100.733463,76.5035965 L103.125971,74.695799 L104.335684,72.3459427 L104.820973,71.484469" id="Path-9" stroke="#070707" stroke-width="0.5"></path>
        <path d="M89.5405955,57.6142866 C92.3546862,67.2976474 95.1554567,65.2775773 88.3531186,67.2381084" id="Path-10" stroke="#000000" stroke-width="0.5"></path>
        <path d="M89.3608534,108.375669 L84.6869202,101.194969 L79.893321,99.7588284 L73.5018553,99.7588284 L71.9039889,102.631109 L73.5018553,106.939529 L76.6975881,108.375669 L79.893321,108.375669 L83.0890538,108.375669 L88.6815863,108.092964 L90.3608534,106.092964 L92.6762523,102.631109 L97.4698516,101.194969 L102.263451,101.194969 L105.459184,102.631109 L105.459184,105.503389 L105.459184,108.375669 L102.263451,108.375669 L99.067718,108.375669 L94.2741187,106.939529 L91.0783859,106.939529 L87.8826531,108.375669 L86.2847866,111.247949 L84.6869202,115.55637 L83.0890538,118.42865 L83.0890538,121.30093" id="Path-2" stroke="#000000" stroke-width="1.70000005"></path>
        <path d="M95.8719852,119.86479 L95.8719852,116.99251 L94.2741187,115.55637 L92.6762523,112.68409 L91.0783859,109.811809 L89.4805195,108.375669" id="Path-4" stroke="#060606" stroke-width="1.7"></path>
        <polyline id="Path-5" stroke="#060606" stroke-width="0.3" style="mix-blend-mode: darken;" points="89.4805195 109.811809 89.4805195 167.208164 89.5098997 187.092964"></polyline>
        <path d="M92.3608534,151.092964 L92.3608534,152.529104" id="Path-7" stroke="#F8E81C" stroke-width="0.5"></path>
        <path d="M92.3608534,162.092964 L92.3608534,163.529104" id="Path-7" stroke="#F8E81C" stroke-width="0.5"></path>
        <path d="M92.3608534,171.656824 L92.3608534,173.092964" id="Path-7" stroke="#F8E81C" stroke-width="0.5"></path>
        <path d="M92.3608534,181.220684 L92.3608534,182.656824" id="Path-7" stroke="#F8E81C" stroke-width="0.5"></path>
        <path d="M92.3608534,140.092964 L92.3608534,141.529104" id="Path-7" stroke="#F8E81C" stroke-width="0.5"></path>
        <path d="M123.619055,52.3662042 C120.263177,55.8725296 120.918243,53.3637246 124.633581,60.983045" id="Path-11" stroke="#000000" stroke-width="0.1" transform="translate(123.035714, 56.674625) scale(-1, 1) translate(-123.035714, -56.674625) "></path>
        <path d="M56.5086654,52.3662042 C53.152787,55.8725296 53.8078531,53.3637246 57.5231911,60.983045" id="Path-11" stroke="#000000" stroke-width="0.1"></path>
        <path d="M92.3608534,129.092964 L92.3608534,130.529104" id="Path-7" stroke="#F8E81C" stroke-width="0.5"></path>
        <polyline id="Path-6" stroke="#DF5B5B" stroke-width="0.6" points="103.861317 63.8553252 102.75848 65.8377555 102.263451 66.7276055"></polyline>
        <path d="M107.05705,63.8553252 L105.459184,66.7276055" id="Path-6" stroke="#DF5B5B" stroke-width="0.6"></path>
        <path d="M75.0123338,63.8067108 L73.4144674,66.6789911 L73.5892432,66.7762199 L75.1871096,63.9039396 L75.0123338,63.8067108 Z M71.816601,62.3705707 L70.2187346,65.242851 L70.3935103,65.3400798 L71.9913767,62.4677995 L71.816601,62.3705707 Z" id="Combined-Shape" stroke="#DF5B5B" stroke-width="0.6"></path>
        <ellipse id="Oval" stroke="#000000" fill="#000000" cx="75.0997217" cy="56.6746246" rx="1.59786642" ry="1.43614013"></ellipse>
        <ellipse id="Oval" stroke="#000000" fill="#000000" cx="103.861317" cy="56.6746246" rx="1.59786642" ry="1.43614013"></ellipse>
    </g>
</svg>